<?xml version="1.0" encoding="UTF-8" standalone="no"?>
<!-- Created with Inkscape (http://www.inkscape.org/) -->

<svg
   width="114mm"
   height="75.999992mm"
   viewBox="0 0 114 75.999992"
   version="1.1"
   id="svg1"
   inkscape:export-filename="ContactLogo.svg"
   inkscape:export-xdpi="4.2760944"
   inkscape:export-ydpi="4.2760944"
   xmlns:inkscape="http://www.inkscape.org/namespaces/inkscape"
   xmlns:sodipodi="http://sodipodi.sourceforge.net/DTD/sodipodi-0.dtd"
   xmlns="http://www.w3.org/2000/svg"
   xmlns:svg="http://www.w3.org/2000/svg">
  <sodipodi:namedview
     id="namedview1"
     pagecolor="#505050"
     bordercolor="#ffffff"
     borderopacity="1"
     inkscape:showpageshadow="0"
     inkscape:pageopacity="0"
     inkscape:pagecheckerboard="1"
     inkscape:deskcolor="#505050"
     inkscape:document-units="mm"
     inkscape:export-bgcolor="#ffffff00" />
  <defs
     id="defs1">
    <linearGradient
       id="swatch9"
       inkscape:swatch="solid">
      <stop
         style="stop-color:#000000;stop-opacity:1;"
         offset="0"
         id="stop9" />
    </linearGradient>
  </defs>
  <g
     inkscape:label="Layer 1"
     inkscape:groupmode="layer"
     id="layer1">
    <path
       d="m 56.999984,32.007278 c -1.263827,9e-6 -2.526064,0.07288 -3.777028,0.218056 -1.25115,0.145167 -2.487877,0.362293 -3.700687,0.649716 -1.212663,0.287368 -2.398369,0.644288 -3.54802,1.068023 -1.149564,0.423835 -2.260173,0.91341 -3.323306,1.464974 -1.063209,0.551516 -2.076266,1.163635 -3.031406,1.831663 -0.955161,0.667943 -1.850008,1.390114 -2.677679,2.16097 -0.827781,0.771035 -1.586271,1.588831 -2.269656,2.447112 -0.683127,0.858165 -1.289455,1.754629 -1.814327,2.682523 -0.525082,0.927889 -0.967388,1.884884 -1.323516,2.863642 -0.356005,0.978747 -0.624944,1.976787 -0.804757,2.986464 -0.0135,0.134594 -0.02559,0.269292 -0.03601,0.404069 -0.0117,0.117856 -0.02206,0.235789 -0.03117,0.353783 V 55.7201 74.682436 h 23.423903 5.827351 23.423902 V 55.718322 50.837446 c -0.0027,-0.01765 -0.0054,-0.03531 -0.0081,-0.05296 -0.02302,-0.166519 -0.04848,-0.332819 -0.07634,-0.498856 -0.06367,-0.346744 -0.137874,-0.69218 -0.222565,-1.035985 -0.08474,-0.343747 -0.179915,-0.68577 -0.285452,-1.025748 -0.105464,-0.340005 -0.221259,-0.677873 -0.347277,-1.013288 -0.126193,-0.335369 -0.26261,-0.668194 -0.409071,-0.998159 -0.146245,-0.330121 -0.302544,-0.657305 -0.468722,-0.981242 -0.166187,-0.323841 -0.342218,-0.64435 -0.527904,-0.96122 -0.18561,-0.31681 -0.380807,-0.629898 -0.585433,-0.938975 -0.20483,-0.309176 -0.419027,-0.614251 -0.642407,-0.914941 -0.223199,-0.300636 -0.455496,-0.596809 -0.696696,-0.888244 -0.241219,-0.291493 -0.491273,-0.578168 -0.749923,-0.859759 -0.258734,-0.281453 -0.525995,-0.557741 -0.801527,-0.828611 -0.27554,-0.271102 -0.559293,-0.536707 -0.850987,-0.796566 -0.291665,-0.259697 -0.591191,-0.51358 -0.898295,-0.761414 -0.307085,-0.247832 -0.621667,-0.489549 -0.94345,-0.724922 -0.321806,-0.235361 -0.650727,-0.464317 -0.986456,-0.686651 -0.335646,-0.222428 -0.67801,-0.438177 -1.026773,-0.647044 -0.348792,-0.208739 -0.703885,-0.41054 -1.064943,-0.605215 -0.361227,-0.194739 -0.728327,-0.382296 -1.10096,-0.562492 -0.372424,-0.180269 -0.750282,-0.353135 -1.133216,-0.518438 -0.383099,-0.165195 -0.771173,-0.322778 -1.163859,-0.4726 -0.392527,-0.149947 -0.789563,-0.2921 -1.190733,-0.42632 -0.401257,-0.134094 -0.80654,-0.260219 -1.215467,-0.37826 -0.408915,-0.118067 -0.821365,-0.22802 -1.236967,-0.329751 -0.415508,-0.101726 -0.834056,-0.195208 -1.255246,-0.280358 -0.421388,-0.08523 -0.845311,-0.162086 -1.271373,-0.230514 -0.425846,-0.0684 -0.853711,-0.128339 -1.283199,-0.179786 -0.429588,-0.0514 -0.860681,-0.09428 -1.292876,-0.128606 -0.432257,-0.03439 -0.865499,-0.06021 -1.299326,-0.07743 -0.433678,-0.0172 -0.867818,-0.0258 -1.302015,-0.0258 z"
       style="opacity:1;fill:#ff0000;fill-opacity:1;stroke:#000000;stroke-width:2.32484;stroke-linejoin:round;paint-order:markers fill stroke"
       id="path13" />
    <ellipse
       style="opacity:1;fill:#ff0000;fill-opacity:1;stroke:#000000;stroke-width:2.08972;stroke-linejoin:round;stroke-dasharray:none;stroke-opacity:1;paint-order:markers fill stroke"
       id="path14"
       cx="57"
       cy="15.88852"
       rx="12.955141"
       ry="12.955142" />
  </g>
</svg>
